<svg xmlns="http://www.w3.org/2000/svg" xmlns:svg="http://www.w3.org/2000/svg" id="svg1" width="500" height="500" version="1.1" viewBox="0 0 132.292 132.292"><g id="layer1" transform="translate(-76.200105,-115.62292)"><g id="g1" transform="matrix(3.3139169,0,0,3.3139169,76.216727,114.23118)" style="stroke-width:.0798401"><path id="path10" d="M 39.42,17.37 H 26.65 a 1.59,1.59 0 0 1 -1.6,-1.6 V 3 A 1.59,1.59 0 0 0 23.45,1.41 H 18.67 A 1.59,1.59 0 0 0 17.07,3 v 12.77 a 1.59,1.59 0 0 1 -1.6,1.6 h -4.78 a 1.59,1.59 0 0 1 -1.6,-1.6 V 3 A 1.59,1.59 0 0 0 7.49,1.4 H 2.7 A 1.59,1.59 0 0 0 1.11,3 v 36.72 a 1.59,1.59 0 0 0 1.6,1.6 h 36.71 a 1.59,1.59 0 0 0 1.6,-1.6 V 19 a 1.59,1.59 0 0 0 -1.6,-1.63 z M 33,30.93 a 2.39,2.39 0 0 1 -2.39,2.4 h -3.2 a 2.39,2.39 0 0 1 -2.39,-2.4 v -3.19 a 2.39,2.39 0 0 1 2.39,-2.4 h 3.2 a 2.39,2.39 0 0 1 2.39,2.4 z" class="cls-2" transform="translate(-1.11,-0.98)" style="fill:#f60;stroke-width:.0798401"/></g></g></svg>