<svg xmlns="http://www.w3.org/2000/svg" xmlns:svg="http://www.w3.org/2000/svg" id="svg2" width="453.975" height="180.156" version="1.1"><defs id="defs4"><marker id="Arrow1Mend" orient="auto" refX="0" refY="0" style="overflow:visible"><path id="path3898" d="M 0,0 5,-5 -12.5,0 5,5 0,0 z" style="fill-rule:evenodd;stroke:#000;stroke-width:1pt;marker-start:none" transform="matrix(-0.4,0,0,-0.4,-4,0)"/></marker><clipPath id="clipPath2907" clipPathUnits="userSpaceOnUse"><rect style="fill:none;stroke:#000;stroke-width:.28346458;stroke-linecap:butt;stroke-miterlimit:4;stroke-opacity:1;stroke-dasharray:none" id="rect2909" width="52.089" height="53.825" x="-7.244" y="-46.216" transform="scale(1,-1)"/></clipPath><clipPath id="clipPath2913" clipPathUnits="userSpaceOnUse"><rect style="fill:none;stroke:#000;stroke-width:.28346458;stroke-linecap:butt;stroke-miterlimit:4;stroke-opacity:1;stroke-dasharray:none" id="rect2915" width="43.06" height="48.616" x="-2.383" y="-43.438" transform="scale(1,-1)"/></clipPath><clipPath id="clipPath4264" clipPathUnits="userSpaceOnUse"><rect style="fill:none;stroke:#a9b5af;stroke-width:1.41732287;stroke-linecap:butt;stroke-miterlimit:4;stroke-opacity:1;stroke-dasharray:2.83464566,2.83464566;stroke-dashoffset:0" id="rect4266" width="51.047" height="57.645" x="-10.023" y="-44.827" transform="scale(1,-1)"/></clipPath><marker id="Arrow1Mend-8" orient="auto" refX="0" refY="0" style="overflow:visible"><path id="path3898-0" d="M 0,0 5,-5 -12.5,0 5,5 0,0 z" style="fill-rule:evenodd;stroke:#000;stroke-width:1pt;marker-start:none" transform="matrix(-0.4,0,0,-0.4,-4,0)"/></marker></defs><metadata id="metadata7"/><g id="layer1" transform="translate(-56.84375,-37.09375)"><g id="g5416"><g id="g5359" transform="translate(-38,0)"><g id="g5327"><path style="fill:none;stroke:#a9b5af;stroke-width:1.77165353;stroke-linecap:butt;stroke-miterlimit:4;stroke-opacity:1;stroke-dashoffset:0" id="path3093" d="m 205.74997,138.20728 c 0,9.58924 -7.77362,17.36286 -17.36287,17.36286 -9.58925,0 -17.36287,-7.77362 -17.36287,-17.36286 0,-9.58925 7.77362,-17.36287 17.36287,-17.36287 9.58925,0 17.36287,7.77362 17.36287,17.36287 z"/><g style="font-size:22px;font-style:normal;font-weight:400;line-height:125%;letter-spacing:0;word-spacing:0;fill:#000;fill-opacity:1;stroke:none;font-family:Myriad Pro;-inkscape-font-specification:Myriad Pro" id="text3869"><path id="path5471" d="m 194.11809,145.62128 -4.62,-7.612 4.51,-7.216 -2.222,0 -2.002,3.476 c -0.55,0.946 -0.924,1.628 -1.342,2.508 l -0.066,0 c -0.396,-0.792 -0.814,-1.54 -1.364,-2.508 l -1.958,-3.476 -2.222,0 4.356,7.326 -4.532,7.502 2.2,0 1.782,-3.256 c 0.748,-1.298 1.188,-2.09 1.606,-2.948 l 0.044,0 c 0.462,0.858 0.92401,1.672 1.694,2.926 l 1.914,3.278 2.222,0"/></g></g><g style="font-size:16px;font-style:normal;font-weight:400;text-align:center;line-height:125%;letter-spacing:0;word-spacing:0;text-anchor:middle;fill:#000;fill-opacity:1;stroke:none;font-family:Myriad Pro;-inkscape-font-specification:Myriad Pro" id="text3873"><path id="path5474" d="m 137.08523,159.69065 0.256,3.84 0.864,0 0.256,-3.84 -1.376,0 m 2.384,0 0.256,3.84 0.864,0 0.256,-3.84 -1.376,0"/><path id="path5476" d="m 142.84348,170.76265 1.376,0 0,-4.672 c 0,-0.24 0.032,-0.48 0.112,-0.688 0.224,-0.704 0.88,-1.408 1.744,-1.408 1.072,0 1.616,0.88 1.616,2.112 l 0,4.656 1.376,0 0,-4.8 c 0,-0.24 0.048,-0.496 0.112,-0.704 0.256,-0.672 0.864,-1.264 1.68,-1.264 1.11999,0 1.68,0.88 1.68,2.384 l 0,4.384 1.376,0 0,-4.56 c 0,-2.688 -1.52,-3.36 -2.56,-3.36 -0.736,0 -1.232,0.192 -1.696,0.544 -0.32,0.24 -0.64,0.56 -0.88,1.008 l -0.032,0 c -0.336,-0.912 -1.136,-1.552 -2.176,-1.552 -1.296,0 -2.016,0.688 -2.448,1.424 l -0.048,0 -0.064,-1.248 -1.232,0 c 0.032,0.64 0.064,1.28 0.064,2.096 l 0,5.648"/><path id="path5478" d="m 154.94448,163.01865 2.848,7.136 c 0.08,0.176 0.112,0.288 0.112,0.368 0,0.08 -0.048,0.192 -0.112,0.336 -0.336,0.72 -0.8,1.264 -1.184,1.568 -0.416,0.352 -0.88,0.576 -1.232,0.688 l 0.352,1.168 c 0.352,-0.064 1.024,-0.304 1.728,-0.896 0.96,-0.848 1.648,-2.192 2.656,-4.848 l 2.112,-5.52 -1.488,0 -1.536,4.544 c -0.192,0.56 -0.352,1.152 -0.496,1.616 l -0.032,0 c -0.128,-0.464 -0.32,-1.072 -0.512,-1.584 l -1.68,-4.576 -1.536,0"/><path id="path5480" d="m 162.33173,171.96265 0,0.8 8,0 0,-0.8 -8,0"/><path id="path5482" d="m 177.72373,167.14665 c 0.032,-0.16 0.048,-0.368 0.048,-0.656 0,-1.424 -0.65601,-3.648 -3.184,-3.648 -2.256,0 -3.648,1.84 -3.648,4.176 0,2.32 1.44,3.904 3.808,3.904 1.23199,0 2.096,-0.272 2.592,-0.496 l -0.256,-1.008 c -0.512,0.224 -1.136,0.4 -2.144,0.4 -1.408,0 -2.608,-0.784 -2.64,-2.672 l 5.424,0 m -5.408,-1.008 c 0.112,-0.976 0.72,-2.288 2.16,-2.288 1.56799,0 1.952,1.392 1.936,2.288 l -4.096,0"/><path id="path5484" d="m 178.61898,163.01865 2.624,3.792 -2.752,3.952 1.552,0 1.12,-1.744 c 0.288,-0.464 0.56,-0.88 0.816,-1.344 l 0.032,0 c 0.272,0.464 0.528,0.896 0.832,1.344 l 1.136,1.744 1.6,0 -2.704,-4 2.64,-3.744 -1.536,0 -1.072,1.648 c -0.272,0.416 -0.528,0.816 -0.784,1.28 l -0.048,0 c -0.256,-0.448 -0.496,-0.832 -0.784,-1.264 l -1.104,-1.664 -1.568,0"/><path id="path5486" d="m 191.96723,169.41865 c -0.4,0.176 -0.928,0.368 -1.728,0.368 -1.536,0 -2.688,-1.104 -2.688,-2.896 0,-1.6 0.96,-2.928 2.736,-2.928 0.768,0 1.296,0.192 1.632,0.368 l 0.32,-1.072 c -0.384,-0.208 -1.12,-0.416 -1.952,-0.416 -2.528,0 -4.16,1.744 -4.16,4.128 0,2.368 1.52,3.952 3.856,3.952 1.04,0 1.856,-0.272 2.224,-0.448 l -0.24,-1.056"/><path id="path5488" d="m 193.84348,170.76265 1.408,0 0,-4.672 c 0,-0.272 0.016,-0.48 0.096,-0.672 0.272,-0.768 0.976,-1.408 1.888,-1.408 1.32799,0 1.792,1.04 1.792,2.288 l 0,4.464 1.408,0 0,-4.608 c 0,-2.672 -1.664,-3.312 -2.704,-3.312 -0.528,0 -1.024,0.144 -1.44,0.4 -0.432,0.224 -0.784,0.592 -1.008,0.992 l -0.032,0 0,-4.832 -1.408,0 0,11.36"/><path id="path5490" d="m 208.17448,166.01065 c 0,-1.552 -0.57601,-3.168 -2.96,-3.168 -0.976,0 -1.92,0.272 -2.56,0.672 l 0.32,0.944 c 0.544,-0.368 1.296,-0.576 2.032,-0.576 1.58399,-0.016 1.76,1.152 1.76,1.792 l 0,0.16 c -2.992,-0.016 -4.656,1.008 -4.656,2.88 0,1.12 0.8,2.224 2.368,2.224 1.10399,0 1.952,-0.544 2.368,-1.152 l 0.048,0 0.128,0.976 1.264,0 c -0.08,-0.528 -0.112,-1.184 -0.112,-1.856 l 0,-2.896 m -1.376,2.144 c 0,0.144 -0.016,0.304 -0.064,0.448 -0.224,0.656 -0.88,1.296 -1.904,1.296 -0.704,0 -1.312,-0.416 -1.312,-1.344 0,-1.504 1.744,-1.776 3.28,-1.744 l 0,1.344"/><path id="path5492" d="m 210.43723,170.76265 1.408,0 0,-4.672 c 0,-0.224 0.032,-0.48 0.096,-0.656 0.256,-0.784 0.976,-1.44 1.888,-1.44 1.32799,0 1.792,1.056 1.792,2.304 l 0,4.464 1.408,0 0,-4.624 c 0,-2.656 -1.664,-3.296 -2.736,-3.296 -1.28,0 -2.176,0.72 -2.56,1.44 l -0.032,0 -0.08,-1.264 -1.248,0 c 0.048,0.64 0.064,1.28 0.064,2.096 l 0,5.648"/><path id="path5494" d="m 225.93623,165.13065 c 0,-0.928 0.016,-1.568 0.064,-2.112 l -1.248,0 -0.048,1.168 -0.032,0 c -0.352,-0.656 -1.07201,-1.344 -2.416,-1.344 -1.792,0 -3.504,1.472 -3.504,4.096 0,2.16 1.376,3.792 3.296,3.792 1.19999,0 2.048,-0.576 2.464,-1.296 l 0.032,0 0,0.848 c 0,1.968 -1.05601,2.72 -2.496,2.72 -0.96,0 -1.76,-0.288 -2.272,-0.624 l -0.352,1.088 c 0.624,0.416 1.648,0.64 2.576,0.64 0.976,0 2.064,-0.24 2.832,-0.928 0.736,-0.688 1.104,-1.76 1.104,-3.552 l 0,-4.496 m -1.408,2.32 c 0,0.256 -0.032,0.528 -0.112,0.752 -0.288,0.912 -1.072,1.456 -1.952,1.456 -1.504,0 -2.288,-1.28 -2.288,-2.784 0,-1.808 0.96,-2.944 2.304,-2.944 1.04,0 1.712,0.672 1.968,1.504 0.064,0.192 0.08,0.4 0.08,0.624 l 0,1.392"/><path id="path5496" d="m 234.47373,167.14665 c 0.032,-0.16 0.048,-0.368 0.048,-0.656 0,-1.424 -0.65601,-3.648 -3.184,-3.648 -2.256,0 -3.648,1.84 -3.648,4.176 0,2.32 1.44,3.904 3.808,3.904 1.23199,0 2.096,-0.272 2.592,-0.496 l -0.256,-1.008 c -0.512,0.224 -1.136,0.4 -2.144,0.4 -1.408,0 -2.608,-0.784 -2.64,-2.672 l 5.424,0 m -5.408,-1.008 c 0.112,-0.976 0.72,-2.288 2.16,-2.288 1.56799,0 1.952,1.392 1.936,2.288 l -4.096,0"/><path id="path5498" d="m 235.92898,159.69065 0.256,3.84 0.864,0 0.256,-3.84 -1.376,0 m 2.384,0 0.256,3.84 0.864,0 0.256,-3.84 -1.376,0"/><path id="path5500" d="m 144.58535,181.59465 0,1.424 -1.2,0 0,1.072 1.2,0 0,4.208 c 0,0.912 0.16,1.6 0.544,2.032 0.336,0.368 0.864,0.592 1.52,0.592 0.544,0 0.976,-0.096 1.248,-0.192 l -0.064,-1.072 c -0.208,0.064 -0.432,0.096 -0.816,0.096 -0.784,0 -1.056,-0.544 -1.056,-1.504 l 0,-4.16 2.016,0 0,-1.072 -2.016,0 0,-1.856 -1.376,0.432"/><path id="path5502" d="m 148.67885,183.01865 2.848,7.136 c 0.08,0.176 0.112,0.288 0.112,0.368 0,0.08 -0.048,0.192 -0.112,0.336 -0.336,0.72 -0.8,1.264 -1.184,1.568 -0.416,0.352 -0.88,0.576 -1.232,0.688 l 0.352,1.168 c 0.352,-0.064 1.024,-0.304 1.728,-0.896 0.96,-0.848 1.648,-2.192 2.656,-4.848 l 2.112,-5.52 -1.488,0 -1.536,4.544 c -0.192,0.56 -0.352,1.152 -0.496,1.616 l -0.032,0 c -0.128,-0.464 -0.32,-1.072 -0.512,-1.584 l -1.68,-4.576 -1.536,0"/><path id="path5504" d="m 157.2341,193.93065 1.408,0 0,-4.208 0.032,0 c 0.464,0.768 1.344,1.216 2.384,1.216 1.808,0 3.52,-1.376 3.52,-4.16 0,-2.352 -1.408,-3.936 -3.296,-3.936 -1.248,0 -2.176,0.544 -2.736,1.504 l -0.032,0 -0.08,-1.328 -1.264,0 c 0.048,0.736 0.064,1.536 0.064,2.528 l 0,8.384 m 1.408,-7.664 c 0,-0.176 0.048,-0.384 0.08,-0.56 0.272,-1.072 1.184,-1.744 2.144,-1.744 1.488,0 2.288,1.328 2.288,2.88 0,1.776 -0.864,2.992 -2.352,2.992 -0.992,0 -1.856,-0.672 -2.096,-1.648 -0.048,-0.176 -0.064,-0.384 -0.064,-0.576 l 0,-1.344"/><path id="path5506" d="m 172.55185,187.14665 c 0.032,-0.16 0.048,-0.368 0.048,-0.656 0,-1.424 -0.656,-3.648 -3.184,-3.648 -2.256,0 -3.648,1.84 -3.648,4.176 0,2.32 1.44,3.904 3.808,3.904 1.232,0 2.096,-0.272 2.592,-0.496 l -0.256,-1.008 c -0.512,0.224 -1.136,0.4 -2.144,0.4 -1.408,0 -2.608,-0.784 -2.64,-2.672 l 5.424,0 m -5.408,-1.008 c 0.112,-0.976 0.72,-2.288 2.16,-2.288 1.568,0 1.952,1.392 1.936,2.288 l -4.096,0"/><path id="path5508" d="m 185.49335,185.37065 0,-0.96 -8.256,0 0,0.96 8.256,0 m 0,3.136 0,-0.96 -8.256,0 0,0.96 8.256,0"/><path id="path5510" d="m 192.23885,190.76265 0,-6.672 1.856,0 0,-1.072 -1.872,0 0,-0.416 c 0,-1.184 0.32,-2.24 1.504,-2.24 0.416,0 0.688,0.08 0.912,0.176 l 0.176,-1.088 c -0.272,-0.112 -0.688,-0.224 -1.2,-0.224 -0.64,0 -1.344,0.208 -1.872,0.72 -0.656,0.624 -0.912,1.616 -0.912,2.704 l 0,0.368 -1.072,0 0,1.072 1.072,0 0,6.672 1.408,0"/><path id="path5512" d="m 200.84635,186.01065 c 0,-1.552 -0.576,-3.168 -2.96,-3.168 -0.976,0 -1.92,0.272 -2.56,0.672 l 0.32,0.944 c 0.544,-0.368 1.296,-0.576 2.032,-0.576 1.584,-0.016 1.76,1.152 1.76,1.792 l 0,0.16 c -2.992,-0.016 -4.656,1.008 -4.656,2.88 0,1.12 0.8,2.224 2.368,2.224 1.104,0 1.952,-0.544 2.368,-1.152 l 0.048,0 0.128,0.976 1.264,0 c -0.08,-0.528 -0.112,-1.184 -0.112,-1.856 l 0,-2.896 m -1.376,2.144 c 0,0.144 -0.016,0.304 -0.064,0.448 -0.224,0.656 -0.88,1.296 -1.904,1.296 -0.704,0 -1.312,-0.416 -1.312,-1.344 0,-1.504 1.744,-1.776 3.28,-1.744 l 0,1.344"/><path id="path5514" d="m 203.1091,190.76265 1.408,0 0,-4.672 c 0,-0.224 0.032,-0.48 0.096,-0.656 0.256,-0.784 0.976,-1.44 1.888,-1.44 1.328,0 1.792,1.056 1.792,2.304 l 0,4.464 1.408,0 0,-4.624 c 0,-2.656 -1.664,-3.296 -2.736,-3.296 -1.28,0 -2.176,0.72 -2.56,1.44 l -0.032,0 -0.08,-1.264 -1.248,0 c 0.048,0.64 0.064,1.28 0.064,2.096 l 0,5.648"/><path id="path5516" d="m 215.1521,190.93865 c 1.84,0 3.84,-1.248 3.84,-4.128 0,-2.352 -1.504,-3.968 -3.728,-3.968 -2.128,0 -3.84,1.52 -3.84,4.112 0,2.448 1.632,3.984 3.712,3.984 l 0.016,0 m 0.032,-1.056 c -1.36,0 -2.32,-1.28 -2.32,-2.976 0,-1.472 0.72,-3.008 2.368,-3.008 1.664,0 2.32,1.648 2.32,2.96 0,1.76 -1.008,3.024 -2.352,3.024 l -0.016,0"/><path id="path5518" d="m 227.24535,183.01865 -1.408,0 0,4.736 c 0,0.272 -0.048,0.528 -0.128,0.72 -0.256,0.64 -0.912,1.296 -1.856,1.296 -1.264,0 -1.728,-1.008 -1.728,-2.48 l 0,-4.272 -1.408,0 0,4.528 c 0,2.704 1.456,3.392 2.672,3.392 1.376,0 2.208,-0.816 2.56,-1.44 l 0.032,0 0.08,1.264 1.248,0 c -0.048,-0.608 -0.064,-1.312 -0.064,-2.128 l 0,-5.616"/><path id="path5520" d="m 229.89785,181.59465 0,1.424 -1.2,0 0,1.072 1.2,0 0,4.208 c 0,0.912 0.16,1.6 0.544,2.032 0.336,0.368 0.864,0.592 1.52,0.592 0.544,0 0.976,-0.096 1.248,-0.192 l -0.064,-1.072 c -0.208,0.064 -0.432,0.096 -0.816,0.096 -0.784,0 -1.056,-0.544 -1.056,-1.504 l 0,-4.16 2.016,0 0,-1.072 -2.016,0 0,-1.856 -1.376,0.432"/></g></g><g id="g5030"><path style="fill:none;stroke:#a9b5af;stroke-width:1.77165353;stroke-linecap:butt;stroke-miterlimit:4;stroke-opacity:1;stroke-dashoffset:0" id="rect3906" d="m 277.80585,169.09177 96.3639,0 0,18.23101 -96.3639,0 z"/><g style="font-size:16px;font-style:normal;font-weight:400;line-height:125%;letter-spacing:0;word-spacing:0;fill:#000;fill-opacity:1;stroke:none;font-family:Myriad Pro;-inkscape-font-specification:Myriad Pro" id="text3914"><path id="path5524" d="m 285.73281,171.69065 0.256,3.84 0.864,0 0.256,-3.84 -1.376,0 m 2.384,0 0.256,3.84 0.864,0 0.256,-3.84 -1.376,0"/><path id="path5526" d="m 291.49106,182.76265 1.376,0 0,-4.672 c 0,-0.24 0.032,-0.48 0.112,-0.688 0.224,-0.704 0.88,-1.408 1.744,-1.408 1.072,0 1.616,0.88 1.616,2.112 l 0,4.656 1.376,0 0,-4.8 c 0,-0.24 0.048,-0.496 0.112,-0.704 0.256,-0.672 0.864,-1.264 1.68,-1.264 1.12,0 1.68,0.88 1.68,2.384 l 0,4.384 1.376,0 0,-4.56 c 0,-2.688 -1.52,-3.36 -2.56,-3.36 -0.736,0 -1.232,0.192 -1.696,0.544 -0.32,0.24 -0.64,0.56 -0.88,1.008 l -0.032,0 c -0.336,-0.912 -1.136,-1.552 -2.176,-1.552 -1.296,0 -2.016,0.688 -2.448,1.424 l -0.048,0 -0.064,-1.248 -1.232,0 c 0.032,0.64 0.064,1.28 0.064,2.096 l 0,5.648"/><path id="path5528" d="m 303.59206,175.01865 2.848,7.136 c 0.08,0.176 0.112,0.288 0.112,0.368 0,0.08 -0.048,0.192 -0.112,0.336 -0.336,0.72 -0.8,1.264 -1.184,1.568 -0.416,0.352 -0.88,0.576 -1.232,0.688 l 0.352,1.168 c 0.352,-0.064 1.024,-0.304 1.728,-0.896 0.96,-0.848 1.648,-2.192 2.656,-4.848 l 2.112,-5.52 -1.488,0 -1.536,4.544 c -0.192,0.56 -0.352,1.152 -0.496,1.616 l -0.032,0 c -0.128,-0.464 -0.32,-1.072 -0.512,-1.584 l -1.68,-4.576 -1.536,0"/><path id="path5530" d="m 310.97931,183.96265 0,0.8 8,0 0,-0.8 -8,0"/><path id="path5532" d="m 325.42731,185.93065 1.408,0 0,-8.784 c 0,-0.8 0.016,-1.488 0.064,-2.128 l -1.344,0 -0.048,1.168 -0.032,0 c -0.384,-0.752 -1.184,-1.344 -2.384,-1.344 -1.632,0 -3.504,1.28 -3.504,4.176 0,2.368 1.472,3.92 3.28,3.92 1.248,0 2.112,-0.608 2.528,-1.36 l 0.032,0 0,4.352 m 0,-6.32 c 0,0.208 -0.048,0.48 -0.112,0.672 -0.32,0.976 -1.104,1.536 -2.016,1.536 -1.552,0 -2.288,-1.328 -2.288,-2.88 0,-1.744 0.88,-2.976 2.336,-2.976 1.056,0 1.792,0.736 2.016,1.6 0.048,0.176 0.064,0.384 0.064,0.592 l 0,1.456"/><path id="path5534" d="m 335.62731,175.01865 -1.408,0 0,4.736 c 0,0.272 -0.048,0.528 -0.128,0.72 -0.256,0.64 -0.912,1.296 -1.856,1.296 -1.264,0 -1.728,-1.008 -1.728,-2.48 l 0,-4.272 -1.408,0 0,4.528 c 0,2.704 1.456,3.392 2.672,3.392 1.376,0 2.208,-0.816 2.56,-1.44 l 0.032,0 0.08,1.264 1.248,0 c -0.048,-0.608 -0.064,-1.312 -0.064,-2.128 l 0,-5.616"/><path id="path5536" d="m 344.18381,179.14665 c 0.032,-0.16 0.048,-0.368 0.048,-0.656 0,-1.424 -0.656,-3.648 -3.184,-3.648 -2.256,0 -3.648,1.84 -3.648,4.176 0,2.32 1.44,3.904 3.808,3.904 1.232,0 2.096,-0.272 2.592,-0.496 l -0.256,-1.008 c -0.512,0.224 -1.136,0.4 -2.144,0.4 -1.408,0 -2.608,-0.784 -2.64,-2.672 l 5.424,0 m -5.408,-1.008 c 0.112,-0.976 0.72,-2.288 2.16,-2.288 1.568,0 1.952,1.392 1.936,2.288 l -4.096,0"/><path id="path5538" d="m 352.47106,175.01865 -1.408,0 0,4.736 c 0,0.272 -0.048,0.528 -0.128,0.72 -0.256,0.64 -0.912,1.296 -1.856,1.296 -1.264,0 -1.728,-1.008 -1.728,-2.48 l 0,-4.272 -1.408,0 0,4.528 c 0,2.704 1.456,3.392 2.672,3.392 1.376,0 2.208,-0.816 2.56,-1.44 l 0.032,0 0.08,1.264 1.248,0 c -0.048,-0.608 -0.064,-1.312 -0.064,-2.128 l 0,-5.616"/><path id="path5540" d="m 361.02756,179.14665 c 0.032,-0.16 0.048,-0.368 0.048,-0.656 0,-1.424 -0.656,-3.648 -3.184,-3.648 -2.256,0 -3.648,1.84 -3.648,4.176 0,2.32 1.44,3.904 3.808,3.904 1.232,0 2.096,-0.272 2.592,-0.496 l -0.256,-1.008 c -0.512,0.224 -1.136,0.4 -2.144,0.4 -1.408,0 -2.608,-0.784 -2.64,-2.672 l 5.424,0 m -5.408,-1.008 c 0.112,-0.976 0.72,-2.288 2.16,-2.288 1.568,0 1.952,1.392 1.936,2.288 l -4.096,0"/><path id="path5542" d="m 362.48281,171.69065 0.256,3.84 0.864,0 0.256,-3.84 -1.376,0 m 2.384,0 0.256,3.84 0.864,0 0.256,-3.84 -1.376,0"/></g></g><path id="path3958" d="M 169.72202,138.20728 276.93771,177.7078" style="fill:none;stroke:#000;stroke-width:1.77165353;stroke-linecap:butt;stroke-linejoin:miter;stroke-miterlimit:4;stroke-opacity:1;stroke-dasharray:none;marker-end:url(#Arrow1Mend)"/><path style="fill:none;stroke:#a9b5af;stroke-width:1.77165353;stroke-linecap:butt;stroke-miterlimit:4;stroke-opacity:1;stroke-dasharray:3.54330707,3.54330707;stroke-dashoffset:0" id="rect4161" d="m 91.557251,37.967945 311.663449,0 0,178.403455 -311.663449,0 z"/><g id="g4223" clip-path="url(#clipPath4264)" transform="matrix(0.53068556,0,0,-0.53068556,377.14085,211.60248)"><g id="g4225" transform="scale(0.1,0.1)"><path d="m 2268.52,410.359 c -18.72,0 -35.16,-3.007 -49.26,-9.031 -13.79,-5.969 -25.94,-14.18 -36.25,-24.488 -10.12,-10.078 -18.71,-21.871 -25.51,-35.512 -6.6,-13.387 -11.6,-27.769 -15.51,-42.957 -3.98,-15.199 -6.79,-30.859 -8.47,-46.762 -1.53,-16.019 -2.27,-31.25 -2.27,-46.25 0,-15 0.82,-30.468 2.5,-46.25 1.72,-15.629 4.34,-30.629 8.24,-45.507 4.03,-14.6137 9.57,-28.5629 16.25,-41.7622 6.72,-12.8906 15.16,-24.3007 25.28,-33.9804 10.27,-9.8086 22.34,-17.3086 36.25,-23.0078 l 2.73,-1.0235 2.5,-0.9687 3.01,-0.7383 2.73,-1.0195 2.78,-0.7422 2.96,-0.73831 3.01,-0.51171 3.01,-0.50782 3.01,-0.51172 3.24,-0.51172 3.01,-0.45703 3.24,-0.28125 3.24,-0.23046 3.24,0 3.52,-0.28126 166.76,0 0,33.01168 -86.76,-5.9687 -1.25,1.25 c 5.51,1.4805 10.51,4.4883 15,8.9805 4.69,4.6875 8.95,10.1601 12.73,16.7578 3.72,6.6015 7.04,13.789 10,21.4804 3.01,7.6993 5.43,15.2813 7.5,22.7812 2.23,7.688 4.22,14.801 5.51,21.481 1.53,6.796 2.54,12.578 3.24,17.269 1.92,10.391 3.21,20.93 4.03,31.25 0.9,10.5 1.48,21.129 1.48,31.75 0,14.891 -0.74,30.039 -2.22,45.75 -1.53,15.891 -4.22,31.481 -8.01,46.481 -3.71,15.187 -8.91,29.41 -15.51,43.007 -6.29,13.403 -14.65,25.391 -24.77,35.512 -9.88,10.27 -21.83,18.43 -35.74,24.25 -13.9,5.981 -29.88,8.988 -48.47,8.988 z m -2.04,-33.007 c 14.42,0 27.04,-2.93 37.5,-8.75 10.71,-5.704 19.61,-13.243 27,-22.731 7.3,-9.422 13,-20.359 17.5,-32.781 4.53,-12.192 8.12,-24.649 10.5,-37.731 2.43,-13.211 3.95,-26.371 4.77,-39.257 l 0.23,-2.274 0,-2.5 0.28,-2.219 0.23,-2.5 0,-4.488 0.24,-2.269 0,-2.274 0.27,-4.488 0,-4.262 0.23,-4.207 0,-4.031 c 0,-11.289 -0.54,-23.078 -1.25,-35.512 -0.78,-12.18 -2.34,-24.488 -4.72,-36.476 -2.5,-11.801 -5.78,-23.09 -10.28,-33.9809 -4.29,-10.9023 -10.19,-20.2422 -17.5,-28.5195 -7.38,-8.0118 -16.28,-14.6133 -26.99,-19.4922 -10.39,-4.8086 -23.2,-7.2696 -38.01,-7.2696 -14.29,0 -26.68,2.461 -36.99,7.7383 -10.31,5.3125 -18.94,12.461 -26.25,21.25 -7.19,8.8203 -13.01,18.75 -17.5,30.2735 -4.22,11.5974 -7.65,23.7074 -10.27,35.9764 -2.5,12.422 -4.34,24.883 -5.24,37.262 -0.78,12.5 -1.25,24.101 -1.25,35 0,10.898 0.47,22.66 1.25,35.238 0.9,12.5 2.54,25.152 4.77,37.774 2.5,12.687 5.94,24.878 10.23,36.476 4.5,11.801 10.16,22.152 17.27,31.25 7.3,8.91 16.21,16.102 26.48,21.531 10.51,5.391 23.01,8.243 37.5,8.243 z" style="fill:#a9b5af;fill-opacity:1;fill-rule:nonzero;stroke:none" id="path4227"/><path d="m 2049.77,372 -117,-365.58984 -36.29,0 L 1778.98,372 l -1.21,0 0,-365.58984 -31.79,0 0,397.37884 57.11,0 111.09,-347.8906 1.21,0 111.29,347.8906 55.7,0 0,-397.37884 -31.48,0 0,365.58984 -1.13,0 z" style="fill:#a9b5af;fill-opacity:1;fill-rule:nonzero;stroke:none" id="path4229"/><path d="m 1203.01,403.828 0,-285.226 c 0,-15.391 1.6,-30.352 5,-44.7739 3.4,-14.289 8.75,-26.8672 16.25,-37.957 7.69,-10.832 17.65,-19.5 29.72,-26.01954 12.23,-6.60156 27.11,-9.773435 44.54,-9.773435 13.39,0 25.23,1.722655 35.74,5.511715 10.51,3.71094 19.53,9.03126 27.22,15.51176 7.93,6.7968 14.61,14.4492 20,23.2382 5.51,8.9883 9.89,18.711 13.29,29.0313 3.47,10.457 6.09,21.3203 7.5,32.7309 l 0.74,4.488 0.23,4.262 0.51,4.257 0.23,4.262 0.28,4.207 0.23,4.543 0,8.469 c 0,9.922 -0.58,20.39 -1.99,31.531 -1.09,11.168 -3.01,22.301 -6.02,32.957 -2.89,10.82 -6.6,21.063 -11.48,30.793 -4.69,9.879 -10.66,18.75 -17.77,26.25 -7,7.688 -15.12,13.59 -24.73,17.957 -9.49,4.543 -20.62,6.762 -33.01,6.762 -19.1,0 -35.19,-5.078 -48.51,-15.512 -13.28,-10.269 -22.7,-24.367 -27.97,-42.457 l -1.02,0 0,175 -28.98,0 0,-0.043 z M 1306.25,259.34 c 8.59,0 16.13,-2.149 22.73,-6.25 6.53,-3.981 12.07,-9.262 16.76,-15.738 4.92,-6.602 8.75,-14.102 11.76,-22.5 3.2,-8.524 5.82,-17.114 7.5,-26.024 1.91,-8.59 3.2,-16.988 3.98,-25.457 l 0,-3.012 0.28,-1.488 0.23,-1.519 0,-4.262 0.28,-1.481 0,-2.738 0.23,-1.25 0,-6.519 c 0,-7.704 -0.59,-15.903 -1.48,-24.493 -0.71,-8.519 -1.92,-16.7574 -4.03,-25.2379 -2.11,-8.1992 -4.88,-16.1719 -8.47,-23.75 -3.52,-7.7305 -7.97,-14.7617 -13.29,-20.7813 -5.19,-5.7812 -11.44,-10.3906 -18.75,-13.9804 -7.26,-3.3203 -15.86,-5 -25.46,-5 -9.3,0 -17.62,1.6797 -24.5,5 -6.83,3.4023 -12.61,7.8906 -17.5,13.5117 -4.61,5.707 -8.55,11.957 -11.75,19.2187 -3.01,7.5 -5.36,15.4297 -7.27,23.5196 -1.6,8.0117 -2.81,16.1286 -3.48,24.2616 -0.62,8.199 -1.01,15.93 -1.01,23.238 0,7.11 0.51,15.192 1.48,23.981 1.02,8.832 2.81,17.66 5,26.762 2.5,9.097 5.47,18.046 9.26,26.757 3.71,8.59 8.24,16.129 13.75,22.731 5.39,6.719 11.91,12.07 19.02,16.25 7.27,4.101 15.55,6.25 24.73,6.25 z" style="fill:#f60;fill-opacity:1;fill-rule:nonzero;stroke:none" id="path4231"/><path d="m 468.012,403.828 0,-397.49988 34.488,0 0,179.77388 47.73,0 c 15.239,0 27.661,-1.911 37.04,-6.024 9.57,-3.976 17.109,-9.719 22.73,-17.219 5.82,-7.5 10.309,-16.531 13.52,-27.031 3.359,-10.469 6.441,-22.269 9.25,-35.469 l 20.242,-94.03088 34.488,0 L 665,113.602 c -2.27,11.476 -4.57,21.839 -7.23,31.25 -2.418,9.488 -6.008,17.929 -10.5,25.226 -4.5,7.5 -10.551,13.832 -18.25,19.031 -7.692,5.27 -17.692,9.493 -30.27,12.5 l 0,0.969 c 4.141,1.024 8.09,2.113 11.988,3.012 3.992,1.211 8.133,2.539 12.274,4.262 9.918,3.91 18.316,8.937 25.269,15.226 7.11,6.332 13.008,13.363 17.5,21.25 4.489,7.934 7.66,16.371 9.731,25.75 2.258,9.332 3.238,19.531 3.238,30 0,19.531 -3.281,35.621 -10.23,48.512 -6.961,13.199 -16.372,23.711 -28.008,31.488 -11.602,7.934 -25.121,13.391 -40.512,16.524 -15.352,3.398 -31.41,5.226 -48.48,5.226 l -83.508,0 z m 34.488,-31.707 45.512,0 c 12.027,0 23.828,-0.832 35.226,-2.5 11.641,-1.723 22.032,-5.281 31.024,-10.281 9.019,-5.078 16.047,-12.031 21.476,-21.25 l 1.024,-1.988 0.968,-1.762 1.02,-1.762 0.738,-1.988 0.742,-1.988 0.79,-1.993 0.46,-2.269 0.79,-2.219 0.46,-2.269 0.282,-2.274 0.508,-2.5 0.23,-2.5 0.23,-2.5 0.282,-2.726 0,-5.231 c 0,-16.531 -3.133,-30.359 -9.492,-41.25 -6.18,-10.633 -14.461,-19.109 -24.77,-25.512 -10.309,-6.289 -22.191,-10.82 -35.512,-13.519 -13.316,-2.578 -26.867,-3.981 -40.738,-3.981 l -31.25,0 0,154.262 z" style="fill:#f60;fill-opacity:1;fill-rule:nonzero;stroke:none" id="path4233"/><path d="m 823.012,286.84 c -11.102,0 -22.231,-1.442 -33.524,-4.262 -11.25,-2.566 -21.25,-6.789 -30.226,-12.5 -8.992,-5.656 -16.453,-13.277 -22.274,-22.5 -5.617,-8.976 -8.508,-19.719 -8.508,-32.726 l 35.27,0 c 3.199,16.089 9.301,27.539 18.52,34.257 9.179,6.789 21.992,10.231 38.468,10.231 10.711,0 19.653,-1.399 26.762,-3.981 7.109,-2.621 12.93,-6.289 17.27,-11.019 4.492,-4.488 7.73,-9.84 9.718,-16.25 2.313,-6.168 3.793,-12.93 4.492,-20.231 1.02,-7.23 1.489,-14.73 1.25,-22.5 l 0,-24.031 c -10,-0.066 -20.89,-0.539 -32.5,-1.25 -11.359,-0.777 -22.89,-2.258 -34.492,-4.488 -11.398,-2.11 -22.648,-5.078 -33.468,-8.981 -10.75,-3.828 -20.239,-8.91 -28.52,-15.507 -8.238,-6.411 -14.922,-14.411 -20,-24.024 -4.879,-9.3788 -7.27,-20.5468 -7.27,-33.7069 0,-10.7109 1.532,-20.5117 4.54,-29.543 3.199,-8.9765 7.652,-16.75 13.468,-23.2383 5.981,-6.3984 13.403,-11.48042 21.992,-14.99996 8.829,-3.78906 18.68,-5.511715 29.77,-5.511715 17.969,0 34.219,3.832035 48.52,11.531275 14.371,7.6914 26.64,18.789 36.71,33.4687 l 1.25,0 0,-38.74998 28.52,0 0,187.27388 c 0,15.187 -1.172,28.668 -3.75,40.269 -2.621,11.68 -7.422,21.328 -14.02,29.219 -6.289,7.808 -15,13.871 -25.98,17.781 -11.09,3.899 -25.199,5.969 -41.988,5.969 z m 24.718,-153.012 32.5,0 c 0,-10.969 -0.699,-21.637 -1.992,-31.707 -1.289,-9.9296 -4.957,-19.7694 -10.738,-29.2616 -3.398,-5.8203 -7.66,-11.0586 -12.73,-15.7383 -4.809,-4.7305 -10.282,-8.7227 -16.25,-12 -6.02,-3.5117 -12.231,-6.2109 -19.032,-8 -6.476,-1.7227 -13.238,-2.5 -20,-2.5 -5.468,0 -10.66,0.7773 -15.738,2.5 -4.84,1.7891 -9.262,4.3672 -13.012,7.5 -3.75,3.1992 -6.758,7.3008 -8.976,11.9883 -2.071,4.6797 -3.012,9.6523 -3.012,15.2304 0,12.2305 2.969,22.461 8.98,30.2812 6.02,8.078 13.52,14.289 22.5,18.981 9.18,4.609 19.219,8.117 30,10 l 2,0.269 2.032,0.238 1.988,0.512 1.988,0 1.992,0.5 2,0 2.032,0.238 1.988,0.231 1.988,0.281 1.762,0 1.988,0.231 3.75,0 1.992,0.269 0,-0.043 z" style="fill:#f60;fill-opacity:1;fill-rule:nonzero;stroke:none" id="path4235"/><path d="m 956.48,403.828 0,-285.226 c 0,-15.391 1.61,-30.352 5,-44.7739 3.399,-14.289 9.032,-26.8672 16.532,-37.957 7.687,-10.832 17.539,-19.5 29.718,-26.01954 12.23,-6.60156 26.88,-9.773435 44.26,-9.773435 13.4,0 25.39,1.722655 36.02,5.511715 10.51,3.71094 19.53,9.03126 27.22,15.51176 7.82,6.7968 14.38,14.4492 19.77,23.2382 5.39,8.9883 9.96,18.711 13.24,29.0313 3.6,10.457 6.25,21.3203 7.78,32.7309 l 0.46,4.488 0.51,4.262 0.28,4.257 0.23,4.262 0.23,4.207 0.28,4.543 0,4.207 0.23,4.262 c 0,9.922 -0.7,20.39 -1.99,31.531 -1.09,11.168 -3.24,22.301 -6.25,32.957 -2.81,10.82 -6.6,21.063 -11.52,30.793 -4.69,9.879 -10.63,18.75 -17.74,26.25 -6.99,7.688 -15.15,13.59 -24.76,17.957 -9.5,4.543 -20.59,6.762 -32.97,6.762 -19.1,0 -35.12,-5.078 -48.52,-15.512 -13.28,-10.269 -22.689,-24.367 -28.01,-42.457 l -0.968,0 0,175 -29.032,0 0,-0.043 z M 1059.77,259.34 c 8.67,0 16.13,-2.149 22.73,-6.25 6.6,-3.981 12.3,-9.262 16.99,-15.738 4.92,-6.602 8.75,-14.102 11.76,-22.5 3.2,-8.524 5.55,-17.114 7.27,-26.024 1.87,-8.59 3.2,-16.988 3.98,-25.457 l 0,-1.531 0.23,-1.481 0,-1.488 0.28,-1.519 0,-3.012 0.23,-1.25 0,-1.481 0.28,-1.488 0,-9.019 c 0,-7.704 -0.36,-15.903 -1.25,-24.493 -0.82,-8.519 -2.27,-16.7574 -4.26,-25.2379 -2.11,-8.1992 -4.92,-16.1719 -8.52,-23.75 -3.59,-7.7305 -7.93,-14.7617 -13.24,-20.7813 -5.31,-5.7812 -11.45,-10.3906 -18.75,-13.9804 -7.3,-3.3203 -15.9,-5 -25.51,-5 -9.29,0 -17.34,1.6797 -24.26,5 -6.79,3.4023 -12.57,7.8906 -17.46,13.5117 -4.61,5.707 -8.55,11.957 -11.75,19.2187 -3.008,7.5 -5.629,15.4297 -7.5,23.5196 -1.719,8.0117 -2.821,16.1286 -3.52,24.2616 -0.59,8.199 -0.98,15.93 -0.98,23.238 0,7.11 0.589,15.192 1.492,23.981 1.09,8.832 2.687,17.66 5,26.762 2.379,9.097 5.539,18.046 9.258,26.757 3.78,8.59 8.35,16.129 13.75,22.731 5.5,6.719 11.87,12.07 18.98,16.25 7.3,4.101 15.66,6.25 24.77,6.25 z" style="fill:#f60;fill-opacity:1;fill-rule:nonzero;stroke:none" id="path4237"/><path d="m 1481.8,280.59 0,-274.17984 -28.71,0 0,274.17984 28.71,0 z" style="fill:#f60;fill-opacity:1;fill-rule:nonzero;stroke:none" id="path4239"/><path d="m 1488.91,403.789 0,-46.668 -42.5,0 0,46.668 42.5,0 z" style="fill:#f60;fill-opacity:1;fill-rule:nonzero;stroke:none" id="path4241"/><path d="m 1682.5,2.51172 -3.83,-0.63281 -3.67,-0.46875 -3.59,-0.511722 -3.71,-0.308594 -3.72,-0.269532 -3.59,-0.242187 -3.59,-0.0664062 -3.6,0 c -24.41,0 -42.5,5.1875012 -54.61,15.6991812 -11.99,10.5079 -17.89,27.6875 -17.89,51.8008 l 0,185.5783 -43.9,0 0,27.5 43.9,0 0,63.32 28.6,19.102 0,-82.422 73.2,0 0,-27.5 -73.2,0 0,-176.3986 c 0,-7.9023 0.78,-14.7695 2.3,-20.793 1.49,-6.0078 3.87,-11.0898 7.27,-15.5 3.63,-4.1093 8.2,-7.3086 14.1,-9.5 5.82,-2.1093 12.93,-3.0781 21.33,-3.0781 6.09,0 10.78,0.2695 14.37,1.0899 3.71,0.8984 8.32,2.3086 13.83,3.9101 l 0,-30.30858 z" style="fill:#f60;fill-opacity:1;fill-rule:nonzero;stroke:none" id="path4243"/><path d="M 16.0195,406.328 C 7.14844,406.328 0,399.262 0,390.359 L 0,22.3516 C 0,13.4414 7.14844,6.32812 16.0195,6.32812 l 367.9605,0 c 8.872,0 16.02,7.11328 16.02,16.02348 l 0,208.0074 c 0,8.903 -7.148,15.969 -16.02,15.969 l -127.96,0 c -8.872,0 -16.02,7.113 -16.02,16.024 l 0,128.007 c 0,8.903 -7.148,15.969 -16.02,15.969 l -47.96,0 c -8.872,0 -16.02,-7.066 -16.02,-15.969 l 0,-128.007 c 0,-8.911 -7.148,-16.024 -16.02,-16.024 l -47.9605,0 C 87.1484,246.328 80,253.441 80,262.352 l 0,128.007 c 0,8.903 -7.1484,15.969 -16.0195,15.969 l -47.961,0 z" style="fill:#f60;fill-opacity:1;fill-rule:nonzero;stroke:none" id="path4245"/><path d="m 263.98,166.41 32.04,0 c 13.281,0 23.98,-10.699 23.98,-24.019 l 0,-31.993 C 320,97.0781 309.301,86.3711 296.02,86.3711 l -32.04,0 c -13.281,0 -23.98,10.707 -23.98,24.0269 l 0,31.993 c 0,13.32 10.699,24.019 23.98,24.019 z" style="fill:#fff;fill-opacity:1;fill-rule:nonzero;stroke:none" id="path4247"/></g></g><path id="path4295-8" d="m 56.863387,135.60284 72.924033,-0.43407" style="fill:none;stroke:#000;stroke-width:1.77165353;stroke-linecap:butt;stroke-linejoin:miter;stroke-miterlimit:4;stroke-opacity:1;stroke-dasharray:none;marker-start:none;marker-end:url(#Arrow1Mend)"/><path id="path4924" d="m 374.16977,177.70779 130.65556,13.02216" style="fill:none;stroke:#000;stroke-width:1.77199996;stroke-linecap:butt;stroke-linejoin:miter;stroke-miterlimit:4;stroke-opacity:1;stroke-dasharray:10.632,1.772;stroke-dashoffset:0;marker-end:url(#Arrow1Mend-8)"/><path style="fill:none;stroke:#000;stroke-width:1.77199996;stroke-linecap:butt;stroke-linejoin:miter;stroke-miterlimit:4;stroke-opacity:1;stroke-dasharray:10.632,1.772;stroke-dashoffset:0;marker-end:url(#Arrow1Mend-8)" id="path4246" d="m 374.16977,177.70779 133.25999,-0.86813"/><path id="path4248" d="M 374.16977,176.75864 504.82533,163.73648" style="fill:none;stroke:#000;stroke-width:1.77199996;stroke-linecap:butt;stroke-linejoin:miter;stroke-miterlimit:4;stroke-opacity:1;stroke-dasharray:10.632,1.772;stroke-dashoffset:0;marker-end:url(#Arrow1Mend-8)"/><g id="g5403"><path style="fill:none;stroke:#a9b5af;stroke-width:1.77165353;stroke-linecap:butt;stroke-miterlimit:4;stroke-opacity:1;stroke-dashoffset:0" id="rect5037" d="m 299.80585,109.09178 96.3639,0 0,18.23101 -96.3639,0 z"/><g style="font-size:16px;font-style:normal;font-weight:400;line-height:125%;letter-spacing:0;word-spacing:0;fill:#000;fill-opacity:1;stroke:none;font-family:Myriad Pro;-inkscape-font-specification:Myriad Pro" id="text5039"><path id="path5547" d="m 322.59218,111.69066 0.256,3.84 0.864,0 0.256,-3.84 -1.376,0 m 2.384,0 0.256,3.84 0.864,0 0.256,-3.84 -1.376,0"/><path id="path5549" d="m 327.82243,122.37866 c 0.544,0.32 1.328,0.544 2.176,0.544 1.808,0 2.88,-0.96 2.88,-2.336 0,-1.152 -0.704,-1.824 -2.032,-2.32 -1.00799,-0.4 -1.456,-0.688 -1.456,-1.328 0,-0.576 0.448,-1.056 1.28,-1.056 0.72,0 1.28,0.272 1.584,0.448 l 0.336,-1.008 c -0.416,-0.272 -1.104,-0.48 -1.888,-0.48 -1.64799,0 -2.672,1.024 -2.672,2.272 0,0.912 0.65601,1.68 2.064,2.192 1.024,0.384 1.424,0.736 1.424,1.408 0,0.656 -0.48,1.152 -1.488,1.152 -0.704,0 -1.44,-0.288 -1.872,-0.544 l -0.336,1.056"/><path id="path5551" d="m 333.67018,115.01866 2.848,7.136 c 0.08,0.176 0.112,0.288 0.112,0.368 0,0.08 -0.048,0.192 -0.112,0.336 -0.336,0.72 -0.8,1.264 -1.184,1.568 -0.416,0.352 -0.88,0.576 -1.232,0.688 l 0.352,1.168 c 0.352,-0.064 1.024,-0.304 1.728,-0.896 0.96,-0.848 1.64801,-2.19201 2.656,-4.848 l 2.112,-5.52 -1.488,0 -1.536,4.544 c -0.192,0.56 -0.352,1.152 -0.496,1.616 l -0.032,0 c -0.128,-0.464 -0.32,-1.072 -0.512,-1.584 l -1.68,-4.576 -1.536,0"/><path id="path5553" d="m 341.60368,122.37866 c 0.544,0.32 1.328,0.544 2.176,0.544 1.808,0 2.88,-0.96 2.88,-2.336 0,-1.152 -0.704,-1.824 -2.032,-2.32 -1.00799,-0.4 -1.456,-0.688 -1.456,-1.328 0,-0.576 0.448,-1.056 1.28,-1.056 0.72,0 1.28,0.272 1.584,0.448 l 0.336,-1.008 c -0.416,-0.272 -1.104,-0.48 -1.888,-0.48 -1.64799,0 -2.672,1.024 -2.672,2.272 0,0.912 0.65601,1.68 2.064,2.192 1.024,0.384 1.424,0.736 1.424,1.408 0,0.656 -0.48,1.152 -1.488,1.152 -0.704,0 -1.44,-0.288 -1.872,-0.544 l -0.336,1.056"/><path id="path5555" d="m 348.47543,122.76266 1.408,0 0,-11.36 -1.408,0 0,11.36"/><path id="path5557" d="m 355.42468,122.93866 c 1.84,0 3.84,-1.24801 3.84,-4.128 0,-2.352 -1.504,-3.968 -3.728,-3.968 -2.12799,0 -3.84,1.52 -3.84,4.112 0,2.44799 1.63201,3.984 3.712,3.984 l 0.016,0 m 0.032,-1.056 c -1.35999,0 -2.32,-1.28 -2.32,-2.976 0,-1.472 0.72001,-3.008 2.368,-3.008 1.664,0 2.32,1.648 2.32,2.96 0,1.76 -1.008,3.024 -2.352,3.024 l -0.016,0"/><path id="path5559" d="m 367.66193,117.13066 c 0,-0.928 0.016,-1.568 0.064,-2.112 l -1.248,0 -0.048,1.168 -0.032,0 c -0.352,-0.656 -1.072,-1.344 -2.416,-1.344 -1.79199,0 -3.504,1.472 -3.504,4.096 0,2.16 1.37601,3.792 3.296,3.792 1.2,0 2.048,-0.576 2.464,-1.296 l 0.032,0 0,0.848 c 0,1.968 -1.056,2.72 -2.496,2.72 -0.95999,0 -1.76,-0.288 -2.272,-0.624 l -0.352,1.088 c 0.624,0.416 1.64801,0.64 2.576,0.64 0.976,0 2.064,-0.24 2.832,-0.928 0.736,-0.688 1.104,-1.76 1.104,-3.552 l 0,-4.496 m -1.408,2.32 c 0,0.256 -0.032,0.528 -0.112,0.752 -0.288,0.912 -1.072,1.456 -1.952,1.456 -1.50399,0 -2.288,-1.28 -2.288,-2.784 0,-1.808 0.96001,-2.944 2.304,-2.944 1.04,0 1.712,0.672 1.968,1.504 0.064,0.192 0.08,0.4 0.08,0.624 l 0,1.392"/><path id="path5561" d="m 369.62343,111.69066 0.256,3.84 0.864,0 0.256,-3.84 -1.376,0 m 2.384,0 0.256,3.84 0.864,0 0.256,-3.84 -1.376,0"/></g></g><path style="fill:#09f;fill-opacity:1;stroke:#f60;stroke-width:1.77199996;stroke-linecap:butt;stroke-linejoin:miter;stroke-miterlimit:4;stroke-opacity:1;stroke-dasharray:none;marker-end:url(#Arrow1Mend)" id="path5046" d="m 168.85388,138.20728 38.63237,-26.91244"/><g id="g5332" transform="translate(33.950501,-41.000035)"><path style="fill:none;stroke:#a9b5af;stroke-width:1.77165353;stroke-linecap:butt;stroke-miterlimit:4;stroke-opacity:1;stroke-dashoffset:0" id="path5334" d="m 205.74997,138.20728 c 0,9.58924 -7.77362,17.36286 -17.36287,17.36286 -9.58925,0 -17.36287,-7.77362 -17.36287,-17.36286 0,-9.58925 7.77362,-17.36287 17.36287,-17.36287 9.58925,0 17.36287,7.77362 17.36287,17.36287 z"/><g style="font-size:22px;font-style:normal;font-weight:400;line-height:125%;letter-spacing:0;word-spacing:0;fill:#000;fill-opacity:1;stroke:none;font-family:Myriad Pro;-inkscape-font-specification:Myriad Pro" id="text5336"><path id="path5565" d="m 194.11809,145.62128 -4.62,-7.612 4.51,-7.216 -2.222,0 -2.002,3.476 c -0.55,0.946 -0.924,1.628 -1.342,2.508 l -0.066,0 c -0.396,-0.792 -0.814,-1.54 -1.364,-2.508 l -1.958,-3.476 -2.222,0 4.356,7.326 -4.532,7.502 2.2,0 1.782,-3.256 c 0.748,-1.298 1.188,-2.09 1.606,-2.948 l 0.044,0 c 0.462,0.858 0.92401,1.672 1.694,2.926 l 1.914,3.278 2.222,0"/></g></g><g style="font-size:16px;font-style:normal;font-weight:400;text-align:center;line-height:125%;letter-spacing:0;word-spacing:0;text-anchor:middle;fill:#000;fill-opacity:1;stroke:none;font-family:Myriad Pro;-inkscape-font-specification:Myriad Pro" id="text5340"><path id="path5568" d="m 191.85085,45.69065 0.256,3.84 0.864,0 0.256,-3.84 -1.376,0 m 2.384,0 0.256,3.84 0.864,0 0.256,-3.84 -1.376,0"/><path id="path5570" d="m 197.6091,56.76265 1.408,0 0,-11.36 -1.408,0 0,11.36"/><path id="path5572" d="m 204.55835,56.93865 c 1.84,0 3.84,-1.248003 3.84,-4.128 0,-2.351998 -1.504,-3.968 -3.728,-3.968 -2.128,0 -3.84,1.520002 -3.84,4.112 0,2.447997 1.632,3.984 3.712,3.984 l 0.016,0 m 0.032,-1.056 c -1.36,0 -2.32,-1.280002 -2.32,-2.976 0,-1.471999 0.72,-3.008 2.368,-3.008 1.664,0 2.32,1.648001 2.32,2.96 0,1.759998 -1.008,3.024 -2.352,3.024 l -0.016,0"/><path id="path5574" d="m 216.7956,51.13065 c 0,-0.928 0.016,-1.568001 0.064,-2.112 l -1.248,0 -0.048,1.168 -0.032,0 c -0.352,-0.656 -1.072,-1.344 -2.416,-1.344 -1.792,0 -3.504,1.472002 -3.504,4.096 0,2.159997 1.376,3.792 3.296,3.792 1.2,0 2.048,-0.576001 2.464,-1.296 l 0.032,0 0,0.848 c 0,1.967998 -1.056,2.72 -2.496,2.72 -0.96,0 -1.76,-0.288001 -2.272,-0.624 l -0.352,1.088 c 0.624,0.415999 1.648,0.64 2.576,0.64 0.976,0 2.064,-0.240001 2.832,-0.928 0.736,-0.688 1.104,-1.760002 1.104,-3.552 l 0,-4.496 m -1.408,2.32 c 0,0.255999 -0.032,0.528 -0.112,0.752 -0.288,0.911999 -1.072,1.456 -1.952,1.456 -1.504,0 -2.288,-1.280002 -2.288,-2.784 0,-1.807999 0.96,-2.944 2.304,-2.944 1.04,0 1.712,0.672 1.968,1.504 0.064,0.191999 0.08,0.4 0.08,0.624 l 0,1.392"/><path id="path5576" d="m 225.7331,51.13065 c 0,-0.928 0.016,-1.568001 0.064,-2.112 l -1.248,0 -0.048,1.168 -0.032,0 c -0.352,-0.656 -1.072,-1.344 -2.416,-1.344 -1.792,0 -3.504,1.472002 -3.504,4.096 0,2.159997 1.376,3.792 3.296,3.792 1.2,0 2.048,-0.576001 2.464,-1.296 l 0.032,0 0,0.848 c 0,1.967998 -1.056,2.72 -2.496,2.72 -0.96,0 -1.76,-0.288001 -2.272,-0.624 l -0.352,1.088 c 0.624,0.415999 1.648,0.64 2.576,0.64 0.976,0 2.064,-0.240001 2.832,-0.928 0.736,-0.688 1.104,-1.760002 1.104,-3.552 l 0,-4.496 m -1.408,2.32 c 0,0.255999 -0.032,0.528 -0.112,0.752 -0.288,0.911999 -1.072,1.456 -1.952,1.456 -1.504,0 -2.288,-1.280002 -2.288,-2.784 0,-1.807999 0.96,-2.944 2.304,-2.944 1.04,0 1.712,0.672 1.968,1.504 0.064,0.191999 0.08,0.4 0.08,0.624 l 0,1.392"/><path id="path5578" d="m 229.36085,56.76265 0,-7.744 -1.408,0 0,7.744 1.408,0 m -0.72,-9.056 c 0.544,0 0.88,-0.400001 0.88,-0.864 0,-0.496 -0.352,-0.88 -0.864,-0.88 -0.528,0 -0.88,0.384 -0.88,0.88 0,0.463999 0.336,0.864 0.848,0.864 l 0.016,0"/><path id="path5580" d="m 231.70285,56.76265 1.408,0 0,-4.672 c 0,-0.224 0.032,-0.480001 0.096,-0.656 0.256,-0.784 0.976,-1.44 1.888,-1.44 1.328,0 1.792,1.056001 1.792,2.304 l 0,4.464 1.408,0 0,-4.624 c 0,-2.655998 -1.664,-3.296 -2.736,-3.296 -1.28,0 -2.176,0.72 -2.56,1.44 l -0.032,0 -0.08,-1.264 -1.248,0 c 0.048,0.639999 0.064,1.28 0.064,2.096 l 0,5.648"/><path id="path5582" d="m 247.20185,51.13065 c 0,-0.928 0.016,-1.568001 0.064,-2.112 l -1.248,0 -0.048,1.168 -0.032,0 c -0.352,-0.656 -1.072,-1.344 -2.416,-1.344 -1.792,0 -3.504,1.472002 -3.504,4.096 0,2.159997 1.376,3.792 3.296,3.792 1.2,0 2.048,-0.576001 2.464,-1.296 l 0.032,0 0,0.848 c 0,1.967998 -1.056,2.72 -2.496,2.72 -0.96,0 -1.76,-0.288001 -2.272,-0.624 l -0.352,1.088 c 0.624,0.415999 1.648,0.64 2.576,0.64 0.976,0 2.064,-0.240001 2.832,-0.928 0.736,-0.688 1.104,-1.760002 1.104,-3.552 l 0,-4.496 m -1.408,2.32 c 0,0.255999 -0.032,0.528 -0.112,0.752 -0.288,0.911999 -1.072,1.456 -1.952,1.456 -1.504,0 -2.288,-1.280002 -2.288,-2.784 0,-1.807999 0.96,-2.944 2.304,-2.944 1.04,0 1.712,0.672 1.968,1.504 0.064,0.191999 0.08,0.4 0.08,0.624 l 0,1.392"/><path id="path5584" d="m 249.16335,45.69065 0.256,3.84 0.864,0 0.256,-3.84 -1.376,0 m 2.384,0 0.256,3.84 0.864,0 0.256,-3.84 -1.376,0"/><path id="path5586" d="m 178.58535,67.59465 0,1.424 -1.2,0 0,1.072 1.2,0 0,4.208 c 0,0.911999 0.16,1.6 0.544,2.032 0.336,0.367999 0.864,0.592 1.52,0.592 0.544,0 0.976,-0.096 1.248,-0.192 l -0.064,-1.072 c -0.208,0.064 -0.432,0.096 -0.816,0.096 -0.784,0 -1.056,-0.544001 -1.056,-1.504 l 0,-4.16 2.016,0 0,-1.072 -2.016,0 0,-1.856 -1.376,0.432"/><path id="path5588" d="m 182.67885,69.01865 2.848,7.136 c 0.08,0.175999 0.112,0.288 0.112,0.368 0,0.08 -0.048,0.192 -0.112,0.336 -0.336,0.719999 -0.8,1.264 -1.184,1.568 -0.416,0.351999 -0.88,0.576 -1.232,0.688 l 0.352,1.168 c 0.352,-0.064 1.024,-0.304001 1.728,-0.896 0.96,-0.848 1.648,-2.192003 2.656,-4.848 l 2.112,-5.52 -1.488,0 -1.536,4.544 c -0.192,0.559999 -0.352,1.152 -0.496,1.616 l -0.032,0 c -0.128,-0.464 -0.32,-1.072001 -0.512,-1.584 l -1.68,-4.576 -1.536,0"/><path id="path5590" d="m 191.2341,79.93065 1.408,0 0,-4.208 0.032,0 c 0.464,0.767999 1.344,1.216 2.384,1.216 1.808,0 3.52,-1.376003 3.52,-4.16 0,-2.351998 -1.408,-3.936 -3.296,-3.936 -1.248,0 -2.176,0.544 -2.736,1.504 l -0.032,0 -0.08,-1.328 -1.264,0 c 0.048,0.735999 0.064,1.536001 0.064,2.528 l 0,8.384 m 1.408,-7.664 c 0,-0.176 0.048,-0.384001 0.08,-0.56 0.272,-1.071999 1.184,-1.744 2.144,-1.744 1.488,0 2.288,1.328001 2.288,2.88 0,1.775998 -0.864,2.992 -2.352,2.992 -0.992,0 -1.856,-0.672001 -2.096,-1.648 -0.048,-0.176 -0.064,-0.384001 -0.064,-0.576 l 0,-1.344"/><path id="path5592" d="m 206.55185,73.14665 c 0.032,-0.16 0.048,-0.368001 0.048,-0.656 0,-1.423999 -0.656,-3.648 -3.184,-3.648 -2.256,0 -3.648,1.840002 -3.648,4.176 0,2.319997 1.44,3.904 3.808,3.904 1.232,0 2.096,-0.272001 2.592,-0.496 l -0.256,-1.008 c -0.512,0.223999 -1.136,0.4 -2.144,0.4 -1.408,0 -2.608,-0.784002 -2.64,-2.672 l 5.424,0 m -5.408,-1.008 c 0.112,-0.975999 0.72,-2.288 2.16,-2.288 1.568,0 1.952,1.392 1.936,2.288 l -4.096,0"/><path id="path5594" d="m 219.49335,71.37065 0,-0.96 -8.256,0 0,0.96 8.256,0 m 0,3.136 0,-0.96 -8.256,0 0,0.96 8.256,0"/><path id="path5596" d="m 226.23885,76.76265 0,-6.672 1.856,0 0,-1.072 -1.872,0 0,-0.416 c 0,-1.183999 0.32,-2.24 1.504,-2.24 0.416,0 0.688,0.08 0.912,0.176 l 0.176,-1.088 c -0.272,-0.112 -0.688,-0.224 -1.2,-0.224 -0.64,0 -1.344,0.208 -1.872,0.72 -0.656,0.623999 -0.912,1.616001 -0.912,2.704 l 0,0.368 -1.072,0 0,1.072 1.072,0 0,6.672 1.408,0"/><path id="path5598" d="m 234.84635,72.01065 c 0,-1.551999 -0.576,-3.168 -2.96,-3.168 -0.976,0 -1.92,0.272 -2.56,0.672 l 0.32,0.944 c 0.544,-0.368 1.296,-0.576 2.032,-0.576 1.584,-0.016 1.76,1.152 1.76,1.792 l 0,0.16 c -2.992,-0.016 -4.656,1.008001 -4.656,2.88 0,1.119998 0.8,2.224 2.368,2.224 1.104,0 1.952,-0.544001 2.368,-1.152 l 0.048,0 0.128,0.976 1.264,0 c -0.08,-0.528 -0.112,-1.184001 -0.112,-1.856 l 0,-2.896 m -1.376,2.144 c 0,0.143999 -0.016,0.304 -0.064,0.448 -0.224,0.655999 -0.88,1.296 -1.904,1.296 -0.704,0 -1.312,-0.416001 -1.312,-1.344 0,-1.503999 1.744,-1.776 3.28,-1.744 l 0,1.344"/><path id="path5600" d="m 237.1091,76.76265 1.408,0 0,-4.672 c 0,-0.224 0.032,-0.480001 0.096,-0.656 0.256,-0.784 0.976,-1.44 1.888,-1.44 1.328,0 1.792,1.056001 1.792,2.304 l 0,4.464 1.408,0 0,-4.624 c 0,-2.655998 -1.664,-3.296 -2.736,-3.296 -1.28,0 -2.176,0.72 -2.56,1.44 l -0.032,0 -0.08,-1.264 -1.248,0 c 0.048,0.639999 0.064,1.28 0.064,2.096 l 0,5.648"/><path id="path5602" d="m 249.1521,76.93865 c 1.84,0 3.84,-1.248003 3.84,-4.128 0,-2.351998 -1.504,-3.968 -3.728,-3.968 -2.128,0 -3.84,1.520002 -3.84,4.112 0,2.447997 1.632,3.984 3.712,3.984 l 0.016,0 m 0.032,-1.056 c -1.36,0 -2.32,-1.280002 -2.32,-2.976 0,-1.471999 0.72,-3.008 2.368,-3.008 1.664,0 2.32,1.648001 2.32,2.96 0,1.759998 -1.008,3.024 -2.352,3.024 l -0.016,0"/><path id="path5604" d="m 261.24535,69.01865 -1.408,0 0,4.736 c 0,0.271999 -0.048,0.528 -0.128,0.72 -0.256,0.639999 -0.912,1.296 -1.856,1.296 -1.264,0 -1.728,-1.008002 -1.728,-2.48 l 0,-4.272 -1.408,0 0,4.528 c 0,2.703997 1.456,3.392 2.672,3.392 1.376,0 2.208,-0.816001 2.56,-1.44 l 0.032,0 0.08,1.264 1.248,0 c -0.048,-0.608 -0.064,-1.312001 -0.064,-2.128 l 0,-5.616"/><path id="path5606" d="m 263.89785,67.59465 0,1.424 -1.2,0 0,1.072 1.2,0 0,4.208 c 0,0.911999 0.16,1.6 0.544,2.032 0.336,0.367999 0.864,0.592 1.52,0.592 0.544,0 0.976,-0.096 1.248,-0.192 l -0.064,-1.072 c -0.208,0.064 -0.432,0.096 -0.816,0.096 -0.784,0 -1.056,-0.544001 -1.056,-1.504 l 0,-4.16 2.016,0 0,-1.072 -2.016,0 0,-1.856 -1.376,0.432"/></g><g id="g5398"><path style="fill:none;stroke:#a9b5af;stroke-width:1.77165353;stroke-linecap:butt;stroke-miterlimit:4;stroke-opacity:1;stroke-dashoffset:0" id="rect5353" d="m 299.80585,67.091721 96.3639,0 0,18.23101 -96.3639,0 z"/><g style="font-size:16px;font-style:normal;font-weight:400;line-height:125%;letter-spacing:0;word-spacing:0;fill:#000;fill-opacity:1;stroke:none;font-family:Myriad Pro;-inkscape-font-specification:Myriad Pro" id="text5355"><path id="path5610" d="m 317.63906,69.690604 0.256,3.84 0.864,0 0.256,-3.84 -1.376,0 m 2.384,0 0.256,3.84 0.864,0 0.256,-3.84 -1.376,0"/><path id="path5612" d="m 328.55231,79.418604 c -0.4,0.176 -0.928,0.368 -1.728,0.368 -1.536,0 -2.688,-1.104002 -2.688,-2.896 0,-1.599999 0.96,-2.928 2.736,-2.928 0.768,0 1.296,0.192 1.632,0.368 l 0.32,-1.072 c -0.384,-0.208 -1.12,-0.416 -1.952,-0.416 -2.528,0 -4.16,1.744002 -4.16,4.128 0,2.367997 1.52,3.952 3.856,3.952 1.04,0 1.856,-0.272 2.224,-0.448 l -0.24,-1.056"/><path id="path5614" d="m 333.50281,80.938604 c 1.84,0 3.84,-1.248003 3.84,-4.128 0,-2.351998 -1.504,-3.968 -3.728,-3.968 -2.128,0 -3.84,1.520002 -3.84,4.112 0,2.447997 1.632,3.984 3.712,3.984 l 0.016,0 m 0.032,-1.056 c -1.36,0 -2.32,-1.280002 -2.32,-2.976 0,-1.471999 0.72,-3.008 2.368,-3.008 1.664,0 2.32,1.648001 2.32,2.96 0,1.759998 -1.008,3.024 -2.352,3.024 l -0.016,0"/><path id="path5616" d="m 339.11606,80.762604 1.408,0 0,-4.672 c 0,-0.224 0.032,-0.48 0.096,-0.656 0.256,-0.783999 0.976,-1.44 1.888,-1.44 1.328,0 1.792,1.056001 1.792,2.304 l 0,4.464 1.408,0 0,-4.624 c 0,-2.655998 -1.664,-3.296 -2.736,-3.296 -1.28,0 -2.176,0.72 -2.56,1.44 l -0.032,0 -0.08,-1.264 -1.248,0 c 0.048,0.639999 0.064,1.280001 0.064,2.096 l 0,5.648"/><path id="path5618" d="m 347.46306,80.378604 c 0.544,0.319999 1.328,0.544 2.176,0.544 1.808,0 2.88,-0.960002 2.88,-2.336 0,-1.151999 -0.704,-1.824001 -2.032,-2.32 -1.008,-0.4 -1.456,-0.688001 -1.456,-1.328 0,-0.576 0.448,-1.056 1.28,-1.056 0.72,0 1.28,0.272 1.584,0.448 l 0.336,-1.008 c -0.416,-0.272 -1.104,-0.48 -1.888,-0.48 -1.648,0 -2.672,1.024001 -2.672,2.272 0,0.911999 0.656,1.68 2.064,2.192 1.024,0.383999 1.424,0.736 1.424,1.408 0,0.655999 -0.48,1.152 -1.488,1.152 -0.704,0 -1.44,-0.288 -1.872,-0.544 l -0.336,1.056"/><path id="path5620" d="m 357.50281,80.938604 c 1.84,0 3.84,-1.248003 3.84,-4.128 0,-2.351998 -1.504,-3.968 -3.728,-3.968 -2.128,0 -3.84,1.520002 -3.84,4.112 0,2.447997 1.632,3.984 3.712,3.984 l 0.016,0 m 0.032,-1.056 c -1.36,0 -2.32,-1.280002 -2.32,-2.976 0,-1.471999 0.72,-3.008 2.368,-3.008 1.664,0 2.32,1.648001 2.32,2.96 0,1.759998 -1.008,3.024 -2.352,3.024 l -0.016,0"/><path id="path5622" d="m 363.11606,80.762604 1.408,0 0,-11.36 -1.408,0 0,11.36"/><path id="path5624" d="m 373.12131,77.146604 c 0.032,-0.16 0.048,-0.368001 0.048,-0.656 0,-1.423999 -0.656,-3.648 -3.184,-3.648 -2.256,0 -3.648,1.840002 -3.648,4.176 0,2.319997 1.44,3.904 3.808,3.904 1.232,0 2.096,-0.272 2.592,-0.496 l -0.256,-1.008 c -0.512,0.224 -1.136,0.4 -2.144,0.4 -1.408,0 -2.608,-0.784002 -2.64,-2.672 l 5.424,0 m -5.408,-1.008 c 0.112,-0.975999 0.72,-2.288 2.16,-2.288 1.568,0 1.952,1.392001 1.936,2.288 l -4.096,0"/><path id="path5626" d="m 374.57656,69.690604 0.256,3.84 0.864,0 0.256,-3.84 -1.376,0 m 2.384,0 0.256,3.84 0.864,0 0.256,-3.84 -1.376,0"/></g></g><path id="path5408" d="m 239.60756,96.102329 58.16559,21.703581" style="fill:none;stroke:#000;stroke-width:1.77165353;stroke-linecap:butt;stroke-linejoin:miter;stroke-miterlimit:4;stroke-opacity:1;stroke-dasharray:none;marker-end:url(#Arrow1Mend)"/><path style="fill:none;stroke:#000;stroke-width:1.77165353;stroke-linecap:butt;stroke-linejoin:miter;stroke-miterlimit:4;stroke-opacity:1;stroke-dasharray:none;marker-end:url(#Arrow1Mend)" id="path5410" d="M 240.04163,95.234186 298.6413,75.700964"/><path style="fill:none;stroke:#000;stroke-width:1.77165353;stroke-linecap:butt;stroke-linejoin:miter;stroke-miterlimit:4;stroke-opacity:1;stroke-dasharray:none;marker-end:url(#Arrow1Mend)" id="path5412" d="m 396.7415,119.10813 84.64396,-0.86815"/><path id="path5414" d="m 396.7415,76.569104 83.77582,-10e-7" style="fill:none;stroke:#000;stroke-width:1.77165353;stroke-linecap:butt;stroke-linejoin:miter;stroke-miterlimit:4;stroke-opacity:1;stroke-dasharray:none;marker-end:url(#Arrow1Mend)"/></g></g></svg>